<?xml version="1.0" encoding="UTF-8"?>
<!DOCTYPE svg PUBLIC "-//W3C//DTD SVG 1.1//EN" "http://www.w3.org/Graphics/SVG/1.1/DTD/svg11.dtd">
<!-- Creator: CorelDRAW Home & Student X7 -->
<svg xmlns="http://www.w3.org/2000/svg" xml:space="preserve" width="70.5948mm" height="25.137mm" version="1.1" style="shape-rendering:geometricPrecision; text-rendering:geometricPrecision; image-rendering:optimizeQuality; fill-rule:evenodd; clip-rule:evenodd"
viewBox="0 0 1718 612"
 xmlns:xlink="http://www.w3.org/1999/xlink">
 <defs>
  <style type="text/css">
   <![CDATA[
    .fil0 {fill:#666666}
    .fil2 {fill:#FF6600}
    .fil1 {fill:#FF6600}
   ]]>
  </style>
 </defs>
 <g id="Camada_x0020_1">
  <metadata id="CorelCorpID_0Corel-Layer"/>
  <g id="_533477008">
   <path class="fil0" d="M724 407c3,-11 8,-21 17,-28 8,-7 18,-10 29,-10l147 0 -7 33 -91 0 -38 176 92 0 -7 34 -138 0c-14,0 -25,-4 -32,-13 -7,-9 -8,-20 -5,-35l33 -157zm411 205l-93 0 45 -210 -51 0 -45 210 -93 0 64 -304 94 0 -13 61 106 0c11,0 20,3 25,10 6,7 7,17 5,28l-44 205zm275 0l-190 0c-14,0 -25,-4 -32,-13 -6,-9 -8,-20 -5,-35l19 -90c2,-11 8,-20 16,-27 9,-7 18,-11 30,-11l106 0 8 -34 -98 0 7 -33 153 0c11,0 20,3 25,10 5,7 7,17 5,28l-44 205zm-113 -142l-24 108 51 0 23 -108 -50 0zm229 142c-14,0 -25,-4 -32,-13 -7,-9 -8,-20 -5,-35l34 -162 -45 0 7 -33 45 0 13 -61 94 0 -13 61 46 0 -7 33 -46 0 -37 176 45 0 -7 34 -92 0z"/>
   <path class="fil0" d="M1055 280l-87 0 42 -193 -47 0 -41 193 -86 0 41 -193 -47 0 -41 193 -87 0 48 -224 318 0c10,0 18,3 23,10 5,6 6,15 4,25l-40 189zm247 0l-175 0c-13,0 -23,-4 -29,-12 -6,-8 -8,-18 -5,-32l17 -83c3,-10 8,-19 15,-25 8,-7 17,-10 28,-10l98 0 7 -31 -90 0 6 -31 141 0c11,0 18,3 23,10 5,6 7,15 5,25l-41 189zm-104 -131l-22 100 47 0 21 -100 -46 0zm279 -118l-86 0 6 -31 87 0 -7 31zm-52 249l-87 0 48 -224 86 0 -47 224zm245 -128c10,0 18,3 23,10 5,6 6,15 4,25l-10 49c-3,14 -9,24 -19,32 -10,8 -21,12 -34,12l-132 0c-14,0 -23,-4 -30,-12 -6,-8 -8,-18 -5,-32l5 -21 87 0 -8 34 47 0 14 -66 -90 0c-13,0 -23,-4 -29,-12 -6,-8 -8,-18 -5,-32l10 -48c2,-10 7,-19 15,-25 8,-7 17,-10 28,-10l149 0c10,0 18,3 23,10 5,6 6,15 4,25l-6 30 -86 0 7 -34 -46 0 -14 65 98 0z"/>
   <path class="fil1" d="M380 0c71,0 61,0 132,0 54,0 97,44 97,97l0 290c0,53 -43,96 -95,97l-10 111c0,22 -4,21 -18,4l-116 -115 -273 0c-53,0 -97,-44 -97,-97 0,-29 0,-57 0,-86 0,-4 3,-7 7,-7l82 0c4,0 7,3 7,7 0,28 0,53 0,81 0,3 3,6 6,6l405 0c4,0 7,-3 7,-6l0 -280c0,-3 -3,-6 -7,-6 -70,0 -57,0 -127,0 -4,0 -7,-3 -7,-7l0 -82c0,-4 3,-7 7,-7z"/>
   <path class="fil0" d="M227 0l-1 0 -1 0 0 0 -1 0 -1 0 -1 0 -1 0 0 0 -1 0 -1 0 -1 0 -1 0 0 0 -1 0 -1 0 -1 0 -1 0 0 0 -2 0 -1 0 0 0 -1 0 -1 0 -1 0 -1 0 -1 0 -1 0 -1 0 0 0 -2 0 -1 0 0 0 -2 0 -1 0 -1 0 -1 0 0 0 -2 0 -1 0 -1 0 -1 0 -1 0 -1 0 0 0 -123 0c-28,0 -50,23 -50,50l0 100 0 50 0 1 0 0 0 2 0 0 0 1 0 0 0 1 0 0 0 1 0 0 0 2 0 0 1 1 0 0 0 1 0 0 0 1 0 0 0 1 0 1 1 1 0 0 0 1 0 0 0 1 0 0 1 1 0 0 0 1 0 0 1 1 0 1 0 1 0 0 1 1 0 0 0 1 0 0 1 1 0 0 0 1 0 0 0 0 1 1 0 0 1 1 0 0 0 0 0 1 0 0 1 1 0 0 1 1 0 0 0 1 0 0 1 0 0 1 0 0 1 1 0 0 0 0 1 1c0,0 1,1 1,1l0 0 1 1 0 0 0 0 1 1 0 0 0 0 1 1 0 0 0 0 1 1 0 0 1 0 0 1 1 0 0 0 0 1 1 0 1 0 0 0 1 1 0 0 0 1 1 0 0 0 1 0 0 1 1 0 1 0 0 1 1 0 1 1 0 0 1 0 0 0 1 1 0 0 1 0 0 0 1 0 0 0 1 1 1 0 0 0 1 0 1 0 0 1 1 0 0 0 1 0 0 0c1,0 2,0 3,1l0 0 1 0 0 0 1 0 0 0 1 0 1 0 1 0 0 0 1 0 0 0 1 0 0 0 0 0 1 0 142 0 60 61c7,8 9,9 9,-3l5 -58 1 0 0 0c3,0 6,0 9,-1l0 0c1,0 3,-1 4,-1l1 0 1 -1 0 0 1 0 0 0 1 0 0 0 1 -1 0 0 1 0 1 -1c1,0 2,-1 2,-1l0 0 1 -1 0 0 1 0 1 0 0 -1 0 0 1 -1 0 0 1 0 1 0 0 -1 1 0 0 -1 0 0 1 0 0 -1 1 0 0 0 1 -1 0 0 0 0 1 -1 0 0 0 0 1 -1 0 0c0,0 1,-1 1,-1l1 -1 0 0 0 0 1 -1 0 0 0 -1 1 0 0 0 0 -1 0 0 1 -1 0 0 1 -1 0 0 0 -1 0 0 0 0 1 -1 0 0 1 -1 0 0 0 0 0 -1 0 0 1 -1 0 0 0 -1 0 0 1 -1 0 0 0 -1 0 -1 1 -1 0 0 0 -1 0 0 1 -1 0 0 0 -1 0 0 0 -1 0 0 1 -1 0 -1 0 -1 0 0 0 -1 0 0 0 -1 0 0 1 -1 0 0 0 -2 0 0 0 -1 0 0 0 -1 0 0 0 -1 0 0 0 -2 0 0 0 -1c0,-15 0,-35 0,-50l0 0 0 -100c0,-27 -22,-50 -50,-50l-53 0 0 0zm54 150l0 0c0,14 0,33 0,48l0 0 0 0 0 0 0 0 0 0 0 0 0 0 0 0 0 0 0 0 0 0 0 0 0 0 0 0 0 0 0 0 0 0 0 0 0 0 0 0 0 0 0 0 0 0 0 1 0 0 0 0 0 0 0 0 0 0 -1 0 0 0 0 0 0 0 0 0 0 0 0 0 0 0 0 0 0 0 0 0 0 0 0 0 0 0 0 0 0 0 0 0 0 0 0 0 0 0 0 0 0 0 0 1 0 0 0 0 0 0 0 0 0 0 0 0 0 0 0 0 0 0 0 0 0 0 0 0 0 0 0 0 0 0 0 0 0 0 0 0 0 0 -1 0 0 0 0 0 0 0 0 0 0 0 0 0 0 0 0 0 0 0 0 0 0 0 0 0 0 0 0 0 0 0 0 0 0 0 0 0 0 0 0 0 0 0 0 0 0 0 0 1 0 0 0 0 0 0 0 0 0 0 -1 0 0 0 0 0 0 0 0 0 0 0 0 0 0 0 0 0 0 0 0 0 0 0 0 0 0 0 0 0 0 0 0 0 0 0 0 0 0 0 0 0 0 0 0 0 0 0 -1 0 0 0 -209 0 -1 0 0 0 0 0 0 0 0 0 0 0 0 0 0 0 0 0 0 0 0 0 0 0 0 0 0 0 0 0 -1 0 0 0 0 0 0 0 0 0 0 -1 0 0 0 0 0 0 0 0 0 0 0 0 0 0 0 0 0 0 0 0 0 0 0 0 0 0 0 0 0 0 0 0 0 0 0 0 0 0 0 0 -1 0 0 0 0 0 0 0 0 0 0 0 0 0 0 0 0 0 0 0 0 0 0 0 0 0 0 0 0 0 0 0 0 0 0 0 0 0 0 0 0 -1 0 0 0 0 0 0 0 0 0 0 0 0 0 0 0 0 0 0 0 0 0 0 0 0 0 0 0 0 0 0 0 0 0 0 0 0 0 0 0 0 -1 0 0 0 0 0 0 0 0 0 0 0 0 -1 0 0 0 0 0 0 0 0 0 0 0 0 0 0 0 0 0 0 0 0 0 0 0 0 0 0 0 0 0 0 0 0 0 0 0 0 0 0 0 0 0 0 0 0 0 0c0,-15 1,-34 0,-48l0 0 0 -97c0,-2 2,-3 4,-3l120 0 0 0 2 0 0 0 1 0 2 0 0 0 2 0 0 0 1 0 2 0 0 0 1 0 2 0 0 0 1 0 1 0 1 0 1 0 1 0 1 0 1 0 0 0 1 0 2 0 0 0 1 0 1 0 1 0 1 0 0 0 1 0 1 0 0 0 2 0 0 0 1 0 1 0 0 0 2 0 0 0 1 0 1 0 0 0 1 0 1 0 0 0 50 0c2,0 4,1 4,3l0 97z"/>
   <g>
    <path class="fil2" d="M221 100c-13,0 -23,10 -23,23 0,13 10,23 23,23 13,0 23,-10 23,-23 0,-13 -10,-23 -23,-23z"/>
    <path class="fil2" d="M163 100c-13,0 -23,10 -23,23 0,13 10,23 23,23 13,0 23,-10 23,-23 0,-13 -10,-23 -23,-23z"/>
    <path class="fil2" d="M105 100c-13,0 -23,10 -23,23 0,13 10,23 23,23 12,0 23,-10 23,-23 0,-13 -11,-23 -23,-23z"/>
   </g>
  </g>
 </g>
</svg>
