<?xml version="1.0" encoding="UTF-8"?>
<!DOCTYPE svg PUBLIC "-//W3C//DTD SVG 1.1//EN" "http://www.w3.org/Graphics/SVG/1.1/DTD/svg11.dtd">
<!-- Creator: CorelDRAW Home & Student X7 -->
<svg xmlns="http://www.w3.org/2000/svg" xml:space="preserve" width="70.5949mm" height="25.1375mm" version="1.1" style="shape-rendering:geometricPrecision; text-rendering:geometricPrecision; image-rendering:optimizeQuality; fill-rule:evenodd; clip-rule:evenodd"
viewBox="0 0 3258 1160"
 xmlns:xlink="http://www.w3.org/1999/xlink">
 <defs>
  <style type="text/css">
   <![CDATA[
    .fil0 {fill:white}
   ]]>
  </style>
 </defs>
 <g id="Camada_x0020_1">
  <metadata id="CorelCorpID_0Corel-Layer"/>
  <g id="_571655008">
   <path class="fil0" d="M1373 771c5,-21 15,-38 32,-52 16,-13 35,-20 56,-20l279 0 -13 64 -173 0 -72 334 173 0 -14 63 -260 0c-27,0 -48,-8 -61,-24 -13,-17 -16,-39 -10,-66l63 -299zm780 389l-177 0 84 -397 -96 0 -84 397 -178 0 122 -576 178 0 -24 115 201 0c21,0 37,7 48,20 10,14 13,31 9,52l-83 389zm521 0l-360 0c-27,0 -47,-8 -60,-24 -13,-17 -17,-39 -11,-66l36 -171c5,-21 15,-38 31,-52 16,-13 35,-20 56,-20l202 0 14 -64 -185 0 13 -64 291 0c21,0 37,7 47,20 10,14 13,31 9,52l-83 389zm-215 -269l-45 206 96 0 45 -206 -96 0zm435 269c-27,0 -47,-8 -60,-24 -13,-17 -17,-39 -11,-66l66 -307 -86 0 13 -64 86 0 24 -115 178 0 -24 115 87 0 -14 64 -87 0 -71 334 87 0 -13 63 -175 0z"/>
   <path class="fil0" d="M2000 531l-164 0 79 -366 -89 0 -78 366 -163 0 78 -366 -88 0 -79 366 -164 0 91 -425 602 0c19,0 34,6 43,19 10,12 13,28 8,47l-76 359zm470 0l-332 0c-25,0 -44,-7 -56,-23 -12,-15 -15,-35 -9,-60l33 -158c4,-19 13,-35 28,-47 15,-13 32,-19 52,-19l186 0 13 -59 -171 0 13 -59 267 0c20,0 34,6 44,19 9,12 12,28 8,47l-76 359zm-199 -248l-41 190 89 0 41 -190 -89 0zm531 -224l-164 0 12 -59 164 0 -12 59zm-100 472l-164 0 90 -425 164 0 -90 425zm465 -242c19,0 33,6 43,18 9,12 12,28 8,48l-19 93c-5,25 -17,45 -36,60 -19,16 -40,23 -65,23l-250 0c-25,0 -44,-7 -56,-23 -12,-15 -15,-35 -10,-60l10 -41 164 0 -15 66 88 0 27 -126 -169 0c-25,0 -44,-7 -56,-22 -12,-16 -15,-36 -9,-61l19 -92c4,-19 14,-35 29,-47 15,-13 32,-19 52,-19l283 0c19,0 34,6 43,19 10,12 13,28 9,47l-13 58 -163 0 15 -65 -89 0 -27 124 187 0z"/>
   <path class="fil0" d="M720 0c136,0 116,0 251,0 102,0 185,83 185,184l0 550c0,100 -82,183 -182,184l-19 211c0,41 -7,40 -33,7l-220 -218 -518 0c-101,0 -184,-83 -184,-184 0,-56 0,-108 0,-163 0,-7 6,-13 13,-13l156 0c7,0 13,6 13,13 0,52 0,101 0,153 0,7 5,12 12,12l768 0c7,0 12,-5 12,-12l0 -530c0,-7 -5,-12 -12,-12 -133,0 -110,0 -242,0 -7,0 -13,-6 -13,-13l0 -156c0,-7 6,-13 13,-13z"/>
   <path class="fil0" d="M430 0l-1 0 -2 0 0 0 -3 0 -1 0 -1 0 -2 0 -1 0 -2 0 -1 0 -2 0 -2 0 -1 0 -2 0 -1 0 -2 0 -2 0 -1 0 -2 0 -2 0 -1 0 -3 0 -1 0 -1 0 -3 0 -1 0 -2 0 -3 0 0 0 -3 0 -1 0 -2 0 -3 0 -1 0 -2 0 -3 0 0 0 -3 0 -2 0 -1 0 -3 0 -1 0 -2 0 -1 0 -233 0c-52,0 -95,43 -95,95l0 189 0 95 0 3 0 0 0 2 0 0 0 3 0 0 0 2 0 0 1 2 0 0 0 3 0 0 0 2 0 0 1 2 0 1 0 2 0 0 1 2 0 0 1 2 0 0 0 2 0 1 1 2 0 0 1 2 0 0 0 2 1 0 0 2 0 0 1 2 1 2 0 0 0 1 1 1 0 1 1 1 0 0 1 2 0 0 1 1 1 1 0 1 1 1 0 1 0 0 1 1 0 1 1 1 1 0 1 2 0 0 1 1 0 1 1 1 0 0 1 1 1 1 0 0 1 1 1 1c0,1 1,2 2,3l1 0 1 1 0 1 1 0 0 1 1 1 0 0 1 1 1 0 1 1 0 1 1 0 1 1 0 0 2 1 0 0 1 1 1 1 1 1 0 0 2 1 0 0 2 1 0 1 2 0 1 1 1 0 0 1 2 1 0 0 2 1 2 1 1 0 1 1 1 0 1 1 1 0 1 0 1 1 2 0 0 0 2 1 0 0 2 1 1 0 1 0 1 0 1 1 1 0 1 0 1 1c2,0 3,0 4,0l1 0 1 1 1 0 2 0 1 0 1 0 1 0 2 0 1 0 1 1 1 0 2 0 0 0 0 0 1 0 269 0 114 114c13,16 17,17 17,-4l9 -110 3 0 0 0c6,-1 11,-1 16,-3l0 0c3,0 6,-1 9,-2l0 0 2 -1 1 0 2 -1 0 0 2 0 0 0 2 -1 0 0 2 -1 2 -1c1,-1 3,-2 4,-2l0 0 2 -1 0 -1 2 -1 0 0 2 -1 0 0 2 -1 0 0 2 -1 0 -1 1 -1 1 0 1 -1 1 0 1 -2 0 0 2 -1 0 0 1 -1 0 0 1 -1 1 -1 0 0 1 -1 1 -1 0 0c1,-1 2,-2 3,-3l0 -1 1 -1 0 0 1 -1 1 -1 0 0 1 -1 1 -1 1 -1 0 0 1 -2 0 0 1 -1 0 -1 1 -1 0 0 0 -1 1 -1 1 -1 1 -1 0 -1 0 0 1 -2 0 0 1 -2 0 0 1 -1 0 -1 0 0 1 -2 1 -2 0 0 1 -2 0 0 1 -2 0 0 0 -2 0 0 1 -2 0 -1 1 -2 0 0 0 -2 0 0 1 -2 0 0 0 -2 0 -1 1 -2 0 0 0 -2 0 0 1 -3 0 0 0 -2 0 0 0 -2 0 0 0 -3 0 0 0 -2 0 0 0 -3c0,-28 0,-66 0,-95l0 0 0 -189c0,-52 -43,-95 -95,-95l-101 0 0 0zm102 284l0 0c0,27 0,63 0,91l0 0 0 0 0 0 0 0 0 0 0 0 0 0 0 0 0 0 0 0 0 0 0 1 0 0 0 0 0 0 0 0 0 0 0 0 0 0 0 0 0 0 0 0 0 0 0 1 0 0 0 0 0 0 0 0 0 0 0 0 0 0 0 0 0 0 0 0 0 0 0 0 0 0 0 0 0 0 0 1 0 0 -1 0 0 0 0 0 0 0 0 0 0 0 0 0 0 0 0 0 0 0 0 0 0 0 0 0 0 0 0 1 0 0 0 0 0 0 0 0 0 0 0 0 0 0 -1 0 0 0 0 0 0 0 0 0 0 0 0 0 0 0 0 0 0 0 0 0 0 0 0 1 0 0 0 0 0 0 0 0 0 0 -1 0 0 0 0 0 0 0 0 0 0 0 0 0 0 0 0 0 0 0 0 0 0 0 0 0 0 0 -1 0 0 0 0 0 0 0 0 0 0 0 0 0 0 0 0 0 0 0 0 1 0 0 0 0 0 0 -1 0 0 0 0 0 0 0 0 0 0 0 0 0 0 0 0 0 0 0 0 0 0 0 -1 0 0 0 0 0 0 0 0 0 0 0 -398 0 0 0 0 0 0 0 -1 0 0 0 0 0 0 0 0 0 0 0 0 0 0 0 0 0 -1 -1 0 0 0 0 0 0 0 0 0 0 0 0 0 0 0 0 0 0 0 0 0 0 -1 0 0 0 0 0 0 0 0 0 0 0 0 0 0 0 0 0 0 0 0 0 0 0 -1 0 0 0 0 -1 0 0 0 0 0 0 0 0 0 0 0 0 0 0 0 0 0 0 0 0 0 0 0 0 0 0 0 0 0 0 -1 0 0 0 0 0 0 -1 0 0 0 0 0 0 0 0 0 0 0 0 0 0 0 0 0 0 0 0 0 0 0 0 0 0 0 0 0 -1 0 0 0 0 0 0 0 0 -1 0 0 0 0 0 0 0 0 0 0 0 0 0 0 0 0 0 0 0 0 0 0 -1 0 0 0 0 0 0 0 0 0 0 0 0 0 0 0 0 0 0 0 0 0 0 0 -1 0 0 0 0 0 0 0 0 0 0 0 0 0 0 0 0 0 0 0 0 0 0c0,-28 0,-64 0,-91l0 0 0 -184c0,-3 3,-6 6,-6l228 0 1 0 3 0 0 0 3 0 2 0 1 0 3 0 1 0 2 0 3 0 0 0 3 0 2 0 1 0 3 0 1 0 1 0 3 0 1 0 2 0 2 0 1 0 2 0 2 0 1 0 2 0 2 0 1 0 2 0 1 0 2 0 2 0 0 0 3 0 1 0 1 0 3 0 0 0 2 0 1 0 2 0 2 0 0 0 2 0 1 0 0 0 96 0c4,0 6,3 6,6l0 184z"/>
   <g>
    <path class="fil0" d="M419 189c-24,0 -43,20 -43,44 0,24 19,44 43,44 25,0 44,-20 44,-44 0,-24 -19,-44 -44,-44z"/>
    <path class="fil0" d="M309 189c-24,0 -44,20 -44,44 0,24 20,44 44,44 24,0 44,-20 44,-44 0,-24 -20,-44 -44,-44z"/>
    <path class="fil0" d="M199 189c-25,0 -44,20 -44,44 0,24 19,44 44,44 24,0 43,-20 43,-44 0,-24 -19,-44 -43,-44z"/>
   </g>
  </g>
 </g>
</svg>
